<svg viewBox="0 0 1489 535" fill="currentColor" xmlns="http://www.w3.org/2000/svg">
  <path d="M568.231 285.817C568.231 287.798 566.569 289.41 564.585 289.41H494.338C496.092 306.734 509.154 322.536 527.523 322.536C540.077 322.536 549.4 317.745 556.415 307.747C557.431 306.365 558.954 305.49 560.892 306.319C561.954 306.78 562.692 307.747 562.877 308.853C563.062 310.005 562.738 310.65 562.415 311.295C555.354 323.596 541.277 329.631 527.477 329.631C503.846 329.631 487 308.53 487 285.955C487 263.38 503.846 242.279 527.477 242.279C551.108 242.233 568.185 263.288 568.231 285.817ZM560.708 282.408C559.185 265.084 545.892 249.282 527.523 249.282C509.154 249.282 496.092 265.084 494.338 282.408H560.708ZM653.477 243.983C655.508 243.983 656.985 245.734 656.985 247.485C656.985 249.512 655.462 250.986 653.477 250.986H634.646V324.748C634.646 326.499 633.123 328.249 631.138 328.249C629.108 328.249 627.631 326.499 627.631 324.748V250.986H609.538C607.508 250.986 606.031 249.466 606.031 247.485C606.031 245.734 607.554 243.983 609.538 243.983H627.631V216.985C627.631 215.281 628.785 213.714 630.446 213.438C632.8 213.069 634.646 214.682 634.646 216.893V243.983H653.477ZM768.354 279.643V324.333C768.354 326.36 766.6 327.835 764.846 327.835C762.815 327.835 761.338 326.314 761.338 324.333V279.643C761.338 264.578 752.8 249.512 735.954 249.512C714.354 249.512 705.031 268.356 706.277 287.66C706.277 288.167 706.508 290.424 706.508 290.654V324.195C706.508 325.9 705.354 327.466 703.692 327.742C701.338 328.111 699.492 326.499 699.492 324.287V177.501C699.492 175.751 701.015 174 703 174C705.031 174 706.508 175.751 706.508 177.501V260.569C712.554 249.789 723.354 242.509 735.908 242.509C756.538 242.509 768.354 260.569 768.354 279.643ZM894.308 285.817C894.308 287.798 892.646 289.41 890.662 289.41H820.369C822.123 306.734 835.185 322.536 853.554 322.536C866.108 322.536 875.431 317.745 882.446 307.747C883.462 306.365 884.985 305.49 886.923 306.319C887.985 306.78 888.723 307.747 888.908 308.853C889.092 310.005 888.769 310.65 888.446 311.295C881.385 323.596 867.308 329.631 853.508 329.631C829.877 329.631 813.031 308.53 813.031 285.955C813.031 263.38 829.877 242.279 853.508 242.279C877.185 242.233 894.262 263.288 894.308 285.817ZM886.738 282.408C885.215 265.084 871.923 249.282 853.554 249.282C835.185 249.282 822.123 265.084 820.369 282.408H886.738ZM980.523 247.255C980.523 249.512 979.277 250.756 977.246 251.032C956.615 254.027 947.338 270.843 947.338 290.424V323.965C947.338 325.669 946.185 327.236 944.523 327.512C942.169 327.881 940.323 326.268 940.323 324.057V247.623C940.323 245.918 941.477 244.352 943.138 244.076C945.492 243.707 947.338 245.32 947.338 247.531V263.103C953.108 253.336 964.692 244.03 976.738 244.03C978.492 243.983 980.523 245.273 980.523 247.255ZM1095.91 285.817C1095.91 287.798 1094.25 289.41 1092.26 289.41H1022.02C1023.77 306.734 1036.83 322.536 1055.2 322.536C1067.75 322.536 1077.08 317.745 1084.09 307.747C1085.11 306.365 1086.63 305.49 1088.57 306.319C1089.63 306.78 1090.37 307.747 1090.55 308.853C1090.74 310.005 1090.42 310.65 1090.09 311.295C1083.03 323.596 1068.95 329.631 1055.15 329.631C1031.52 329.631 1014.68 308.53 1014.68 285.955C1014.68 263.38 1031.52 242.279 1055.15 242.279C1078.78 242.233 1095.86 263.288 1095.91 285.817ZM1088.38 282.408C1086.86 265.084 1073.57 249.282 1055.2 249.282C1036.83 249.282 1023.77 265.084 1022.02 282.408H1088.38ZM1209.31 248.13V324.748C1209.31 326.775 1207.55 328.249 1205.8 328.249C1203.77 328.249 1202.29 326.729 1202.29 324.748V310.189C1196.52 321.753 1186.18 330 1173.12 330C1152.26 330 1140.68 311.94 1140.68 292.866V247.946C1140.68 246.195 1142.2 244.444 1144.18 244.444C1146.22 244.444 1147.69 246.195 1147.69 247.946V292.866C1147.69 307.931 1156.23 322.997 1173.08 322.997C1196.71 322.997 1202.25 300.929 1202.25 276.556V247.946C1202.25 245.918 1204.28 243.845 1206.77 244.582C1208.29 245.089 1209.31 246.563 1209.31 248.13ZM1387 279.367V324.287C1387 326.314 1385.25 327.789 1383.49 327.789C1381.46 327.789 1379.98 326.268 1379.98 324.287V279.367C1379.98 264.301 1371.45 249.512 1354.6 249.512C1333.46 249.512 1325.43 272.087 1325.43 289.641V324.287C1325.43 326.314 1323.68 327.789 1321.92 327.789C1319.89 327.789 1318.42 326.268 1318.42 324.287V279.367C1318.42 264.301 1309.88 249.512 1293.03 249.512C1271.66 249.512 1262.85 266.328 1263.63 288.673C1263.63 289.18 1263.86 290.194 1263.63 290.424V324.195C1263.63 325.9 1262.48 327.466 1260.77 327.742C1258.42 328.111 1256.57 326.499 1256.57 324.287V247.623C1256.57 245.918 1257.72 244.352 1259.38 244.076C1261.74 243.707 1263.58 245.32 1263.58 247.531V260.339C1269.63 249.558 1280.43 242.509 1292.98 242.509C1307.29 242.509 1318.37 251.539 1322.89 264.854C1328.66 251.816 1339.97 242.509 1354.55 242.509C1375.18 242.509 1387 260.293 1387 279.367Z" />
  <path d="M213.456 82L95 278.068L213.456 224.366V82Z" />
  <path d="M213.456 224.366L95 278.068L213.456 347.927V224.366Z" />
  <path d="M331.934 278.068L213.456 82V224.366L331.934 278.068Z" />
  <path d="M213.456 347.927L331.934 278.068L213.456 224.366V347.927Z" />
  <path d="M95 300.486L213.456 467V370.301L95 300.486Z" />
  <path d="M213.456 370.301V467L332 300.486L213.456 370.301Z" />
</svg>
